<?xml version="1.0" encoding="UTF-8"?><svg xmlns="http://www.w3.org/2000/svg" xmlns:xlink="http://www.w3.org/1999/xlink" height="176pt" style="width:210px;height:176px;" version="1.1" viewBox="0 0 210 176" width="210pt">
    <defs>
        <filter height="300%" id="f1" width="300%" x="-1" y="-1">
            <feGaussianBlur result="blurOut" stdDeviation="2.0"/>
            <feColorMatrix in="blurOut" result="blurOut2" type="matrix" values="0 0 0 0 0 0 0 0 0 0 0 0 0 0 0 0 0 0 .4 0"/>
            <feOffset dx="4.0" dy="4.0" in="blurOut2" result="blurOut3"/>
            <feBlend in="SourceGraphic" in2="blurOut3" mode="normal"/>
        </filter>
    </defs>
    <g>
        <polygon fill="#FFFFFF" filter="url(#f1)" points="14,16,86,16,93,39.6094,200,39.6094,200,169,14,169,14,16" style="stroke: #000000; stroke-width: 2.0;"/>
        <line style="stroke: #000000; stroke-width: 2.0;" x1="14" x2="93" y1="39.6094" y2="39.6094"/>
        <text fill="#000000" font-family="sans-serif" font-size="14" font-weight="bold" lengthAdjust="spacingAndGlyphs" textLength="66" x="17" y="33.5332">singleton</text>
        <rect fill="#FEFECE" filter="url(#f1)" height="117.1797" style="stroke: #A80036; stroke-width: 1.5;" width="152" x="22" y="44"/>
        <ellipse cx="67.75" cy="60" fill="#ADD1B2" rx="11" ry="11" style="stroke: #A80036; stroke-width: 1.0;"/>
        <path d="M70.5156,55.875 Q70.6719,55.6563 70.8594,55.5469 Q71.0469,55.4375 71.2656,55.4375 Q71.6406,55.4375 71.875,55.6953 Q72.1094,55.9531 72.1094,56.5625 L72.1094,58.0156 Q72.1094,58.625 71.875,58.8906 Q71.6406,59.1563 71.2656,59.1563 Q70.9219,59.1563 70.7188,58.9531 Q70.5156,58.7656 70.4063,58.25 Q70.3594,57.8906 70.1719,57.7031 Q69.8438,57.3281 69.2344,57.1094 Q68.625,56.8906 68,56.8906 Q67.2344,56.8906 66.6016,57.2188 Q65.9688,57.5469 65.4766,58.2969 Q64.9844,59.0469 64.9844,60.0781 L64.9844,61.1719 Q64.9844,62.4063 65.875,63.2266 Q66.7656,64.0469 68.3594,64.0469 Q69.2969,64.0469 69.9531,63.7969 Q70.3438,63.6406 70.7656,63.2031 Q71.0313,62.9375 71.1797,62.8594 Q71.3281,62.7813 71.5313,62.7813 Q71.8594,62.7813 72.1172,63.0391 Q72.375,63.2969 72.375,63.6406 Q72.375,63.9844 72.0313,64.3906 Q71.5313,64.9688 70.7344,65.2969 Q69.6563,65.75 68.3594,65.75 Q66.8438,65.75 65.6406,65.125 Q64.6563,64.625 63.9688,63.5547 Q63.2813,62.4844 63.2813,61.2031 L63.2813,60.0469 Q63.2813,58.7188 63.8984,57.5703 Q64.5156,56.4219 65.6094,55.8047 Q66.7031,55.1875 67.9375,55.1875 Q68.6719,55.1875 69.3203,55.3516 Q69.9688,55.5156 70.5156,55.875 Z "/>
        <text fill="#000000" font-family="sans-serif" font-size="12" lengthAdjust="spacingAndGlyphs" textLength="52" x="88.25" y="64.9102">Singleton</text>
        <line style="stroke: #A80036; stroke-width: 1.5;" x1="23" x2="173" y1="76" y2="76"/>
        <rect fill="none" height="6" style="stroke: #C82930; stroke-width: 1.0;" width="6" x="30" y="85.418"/>
        <text fill="#000000" font-family="sans-serif" font-size="11" lengthAdjust="spacingAndGlyphs" textLength="100" x="42" y="91.4189">_instance : Singleton</text>
        <rect fill="none" height="6" style="stroke: #C82930; stroke-width: 1.0;" width="6" x="30" y="99.2539"/>
        <text fill="#000000" font-family="sans-serif" font-size="11" lengthAdjust="spacingAndGlyphs" textLength="46" x="42" y="105.2549">value : int</text>
        <line style="stroke: #A80036; stroke-width: 1.5;" x1="23" x2="173" y1="111.6719" y2="111.6719"/>
        <polygon fill="#FFFF44" points="33,119.0898,37,123.0898,33,127.0898,29,123.0898" style="stroke: #B38D22; stroke-width: 1.0;"/>
        <text fill="#000000" font-family="sans-serif" font-size="11" lengthAdjust="spacingAndGlyphs" textLength="52" x="42" y="127.0908">Singleton()</text>
        <ellipse cx="33" cy="137.9258" fill="#84BE84" rx="3" ry="3" style="stroke: #038048; stroke-width: 1.0;"/>
        <text fill="#000000" font-family="sans-serif" font-size="11" lengthAdjust="spacingAndGlyphs" text-decoration="underline" textLength="117" x="42" y="140.9268">getInstance() : Singleton</text>
        <line style="stroke: #000000; stroke-width: 1.0;" x1="42" x2="159" y1="142.9268" y2="142.9268"/>
        <ellipse cx="33" cy="151.7617" fill="#84BE84" rx="3" ry="3" style="stroke: #038048; stroke-width: 1.0;"/>
        <text fill="#000000" font-family="sans-serif" font-size="11" lengthAdjust="spacingAndGlyphs" textLength="126" x="42" y="154.7627">setValue(value : int) : void</text>
        <path d="M187.086,82.8286 C200.17,85.9255 209,92.4826 209,102.5 C209,115.584 193.937,122.7648 174.005,124.0426 " fill="none" style="stroke: #A80036; stroke-width: 1.0;"/>
        <polygon fill="#A80036" points="174.005,80.9574,179.3779,85.767,185.884,82.6572,180.5111,77.8476,174.005,80.9574" style="stroke: #A80036; stroke-width: 1.0;"/>
    </g>
</svg>
