<?xml version="1.0" encoding="UTF-8"?><svg xmlns="http://www.w3.org/2000/svg" xmlns:xlink="http://www.w3.org/1999/xlink" height="235pt" style="width:242px;height:235px;" version="1.1" viewBox="0 0 242 235" width="242pt">
    <defs>
        <filter height="300%" id="f1" width="300%" x="-1" y="-1">
            <feGaussianBlur result="blurOut" stdDeviation="2.0"/>
            <feColorMatrix in="blurOut" result="blurOut2" type="matrix" values="0 0 0 0 0 0 0 0 0 0 0 0 0 0 0 0 0 0 .4 0"/>
            <feOffset dx="4.0" dy="4.0" in="blurOut2" result="blurOut3"/>
            <feBlend in="SourceGraphic" in2="blurOut3" mode="normal"/>
        </filter>
    </defs>
    <g>
        <rect fill="#FFFFFF" filter="url(#f1)" height="61.7031" style="stroke: #000000; stroke-width: 2.0;" width="180" x="53.5" y="86.9609"/>
        <line style="stroke: #A80036; stroke-width: 1.0; stroke-dasharray: 5.0,5.0;" x1="101.5" x2="101.5" y1="39.6094" y2="196.0156"/>
        <rect fill="#FEFECE" filter="url(#f1)" height="31.6094" style="stroke: #A80036; stroke-width: 1.5;" width="73" x="63.5" y="3"/>
        <text fill="#000000" font-family="sans-serif" font-size="14" lengthAdjust="spacingAndGlyphs" textLength="59" x="70.5" y="24.5332">Singleton</text>
        <rect fill="#FEFECE" filter="url(#f1)" height="31.6094" style="stroke: #A80036; stroke-width: 1.5;" width="73" x="63.5" y="195.0156"/>
        <text fill="#000000" font-family="sans-serif" font-size="14" lengthAdjust="spacingAndGlyphs" textLength="59" x="70.5" y="216.5488">Singleton</text>
        <polygon fill="#A80036" points="90,67.6094,100,71.6094,90,75.6094,94,71.6094" style="stroke: #A80036; stroke-width: 1.0;"/>
        <line style="stroke: #A80036; stroke-width: 1.0;" x1="3" x2="96" y1="71.6094" y2="71.6094"/>
        <text fill="#000000" font-family="sans-serif" font-size="13" lengthAdjust="spacingAndGlyphs" textLength="75" x="10" y="67.1045">getInstance()</text>
        <rect fill="none" height="61.7031" style="stroke: #000000; stroke-width: 2.0;" width="180" x="53.5" y="86.9609"/>
        <polygon fill="#EEEEEE" points="53.5,86.9609,114.5,86.9609,114.5,94.9609,104.5,104.9609,53.5,104.9609,53.5,86.9609" style="stroke: #000000; stroke-width: 2.0;"/>
        <text fill="#000000" font-family="sans-serif" font-size="13" font-weight="bold" lengthAdjust="spacingAndGlyphs" textLength="16" x="68.5" y="101.4561">alt</text>
        <text fill="#000000" font-family="sans-serif" font-size="11" font-weight="bold" lengthAdjust="spacingAndGlyphs" textLength="99" x="129.5" y="100.3799">[_instance == null]</text>
        <line style="stroke: #A80036; stroke-width: 1.0;" x1="102" x2="144" y1="127.6641" y2="127.6641"/>
        <line style="stroke: #A80036; stroke-width: 1.0;" x1="144" x2="144" y1="127.6641" y2="140.6641"/>
        <line style="stroke: #A80036; stroke-width: 1.0;" x1="103" x2="144" y1="140.6641" y2="140.6641"/>
        <polygon fill="#A80036" points="113,136.6641,103,140.6641,113,144.6641,109,140.6641" style="stroke: #A80036; stroke-width: 1.0;"/>
        <text fill="#000000" font-family="sans-serif" font-size="13" lengthAdjust="spacingAndGlyphs" textLength="62" x="109" y="122.8076">Singleton()</text>
        <polygon fill="#A80036" points="14,173.6641,4,177.6641,14,181.6641,10,177.6641" style="stroke: #A80036; stroke-width: 1.0;"/>
        <line style="stroke: #A80036; stroke-width: 1.0; stroke-dasharray: 2.0,2.0;" x1="8" x2="101" y1="177.6641" y2="177.6641"/>
        <text fill="#000000" font-family="sans-serif" font-size="13" lengthAdjust="spacingAndGlyphs" textLength="54" x="20" y="173.1592">Singleton</text>
    </g>
</svg>
